<?xml version="1.0" encoding="utf-8"?>
<!-- Generator: Adobe Illustrator 18.0.0, SVG Export Plug-In . SVG Version: 6.00 Build 0)  -->
<!DOCTYPE svg PUBLIC "-//W3C//DTD SVG 1.1//EN" "http://www.w3.org/Graphics/SVG/1.1/DTD/svg11.dtd">
<svg version="1.1" id="Layer_1" xmlns="http://www.w3.org/2000/svg" xmlns:xlink="http://www.w3.org/1999/xlink" x="0px" y="0px"
	 width="50" height="50" viewBox="0 0 400 400" enable-background="new 0 0 400 400" xml:space="preserve">
<path fill="#3399CC" stroke="#FFFFFF" stroke-miterlimit="10" d="M370.6,206.1c-78.3,30.9-261.6,26.1-341-8.3
	c-8.8-3.9-7-17.6-0.4-24.1L183.7,41.5c6.6-6.6,17.3-6.3,24.1,0.4l162.3,139.9C377,188.7,379.3,202.6,370.6,206.1z"/>
<path fill="#3399CC" stroke="#FFFFFF" stroke-width="10" stroke-miterlimit="10" d="M319.6,362.6H79.8c-6.9,0-12.4-5.5-12.4-12.4
	V186.4c0-6.7,5.5-12.4,12.4-12.4h239.8c6.7,0,12.4,5.6,12.4,12.4v163.8C332,356.9,326.5,362.6,319.6,362.6z"/>
<path fill="#FFFFFF" d="M249.4,362.6H150c-0.8,0-1.4-0.7-1.4-1.4V250.6c0-3.9,3.2-6.9,6.9-6.9h88.4c3.9,0,6.9,3.2,6.9,6.9v110.6
	C250.8,361.9,250.3,362.6,249.4,362.6z"/>
</svg>
